<!-- @license proprietary -->
<svg xmlns="http://www.w3.org/2000/svg" width="512" height="512" viewBox="0 0 512 512">
  <metadata id="license">
    <rdf:RDF
        xmlns:rdf="http://www.w3.org/1999/02/22-rdf-syntax-ns#"
        xmlns:dc="http://purl.org/dc/elements/1.1/"
    >
      <rdf:Description rdf:about="">
        <dc:title>twistymaze.com/puzzles application icon</dc:title>
        <dc:creator>Mike Edmunds</dc:creator>
        <dc:dateCopyrighted>2025</dc:dateCopyrighted>
        <dc:rights>Copyright ©2025 Michael V. Edmunds. All rights reserved.</dc:rights>
        <dc:license>
          Copyright ©2025 Michael V. Edmunds. All rights reserved.
          Use outside of twistymaze.com/puzzles is unauthorized.
          (This icon is intentionally _not_ released under the permissive license
          used for most of the Puzzles Webapp code, and it is not included in the
          public source repository.)
        </dc:license>
        <dc:format>image/svg+xml</dc:format>
        <dc:type>StillImage</dc:type>
      </rdf:Description>
    </rdf:RDF>
  </metadata>
  <defs>
    <marker id="dot" viewBox="0 0 4 4" refX="2" refY="2" markerWidth="2"
            markerHeight="2">
      <circle cx="2" cy="2" r="2" fill="#555"/>
    </marker>
  </defs>
  <g transform="matrix(0.95, 0, 0, 0.95, 12.8, 12.8)">
    <g id="left-face" transform="matrix(0.866, 0.5, 0, 1, 34.298, 128)">
      <rect width="256" height="256" fill="#e8e8e8"/>
      <path stroke="#777" stroke-width="12" fill="none"
            d="M128,128 m0,0 m72,0 l-36,68 h-72 l-36,-68 l36,-68 h72 m0,0"
            marker-mid="url(#dot)"/>
    </g>
    <g id="right-face" transform="matrix(0.866, -0.5, 0, 1, 256, 256)">
      <rect width="256" height="256" fill="#d8d8d8"/>
      <g fill="#777">
        <rect x="32" y="32" width="120" height="56" rx="10"/>
        <rect x="168" y="32" width="56" height="124" rx="10"/>
        <rect x="96" y="104" width="56" height="120" rx="10"/>
      </g>
    </g>
    <g id="top-face" transform="matrix(0.866, -0.5, 0.866, 0.5, 34.2976, 128)">
      <rect width="256" height="256" fill="#f8f8f8"/>
      <path stroke="#666" stroke-width="8" fill="#fff"
            d="M80,32 h96 v48 h-48 v96 h-96 v-48 h48 v-96 Z"/>
      <circle cx="104" cy="104" r="16" stroke-width="4" stroke="#999" fill="none"/>
      <rect x="176" y="176" width="48" height="48" stroke="#666" stroke-width="8"
            fill="#fff"/>
    </g>
    <g id="edges" stroke="#333" stroke-width="16" fill="none"
       transform="translate(256, 256)">
      <path d="M0,0 v256 M-222,-128 L0,0 l222,-128"/>
      <path d="M0,-256 l222,128 v256 l-222,128 l-222,-128 v-256 Z"
            stroke-linejoin="round"/>
    </g>
  </g>
</svg>
